<svg width="12" height="14" viewBox="0 0 12 14" fill="none" xmlns="http://www.w3.org/2000/svg">
<path d="M11.6247 4.96341C11.5592 5.00161 10.0003 5.80777 10.0003 7.59523C10.0738 9.63372 11.9675 10.3486 12 10.3486C11.9675 10.3868 11.7141 11.3225 10.9634 12.3033C10.3677 13.1481 9.70647 13.9999 8.70239 13.9999C7.74728 13.9999 7.40443 13.4369 6.30238 13.4369C5.11888 13.4369 4.78401 13.9999 3.87789 13.9999C2.8738 13.9999 2.16359 13.1025 1.53538 12.2656C0.719226 11.1702 0.0255239 9.45116 0.00103401 7.80062C-0.01547 6.92599 0.164477 6.06624 0.621266 5.33598C1.26599 4.31649 2.41701 3.62442 3.67398 3.6016C4.63707 3.57134 5.49422 4.21776 6.08197 4.21776C6.64524 4.21776 7.6983 3.6016 8.88979 3.6016C9.40407 3.6021 10.7755 3.74646 11.6247 4.96341ZM6.00052 3.42697C5.82909 2.62825 6.30238 1.82952 6.7432 1.32002C7.30647 0.70386 8.19609 0.285645 8.96326 0.285645C9.01224 1.08437 8.70186 1.86772 8.14711 2.43824C7.64932 3.0544 6.79218 3.51826 6.00052 3.42697Z" fill="white"/>
</svg>
