<svg width="26" height="26" viewBox="0 0 26 26" fill="none" xmlns="http://www.w3.org/2000/svg">
<path d="M23.6239 10.8784L22.7513 10.8784L22.7513 10.8334L13.0013 10.8334L13.0013 15.1667L19.1238 15.1667C18.2306 17.6893 15.8304 19.5001 13.0013 19.5001C9.41168 19.5001 6.5013 16.5897 6.5013 13.0001C6.5013 9.41046 9.41168 6.50008 13.0013 6.50008C14.6583 6.50008 16.1657 7.12516 17.3135 8.14621L20.3777 5.082C18.4429 3.27879 15.8548 2.16675 13.0013 2.16675C7.01859 2.16675 2.16797 7.01737 2.16797 13.0001C2.16797 18.9828 7.01859 23.8334 13.0013 23.8334C18.984 23.8334 23.8346 18.9828 23.8346 13.0001C23.8346 12.2737 23.7599 11.5647 23.6239 10.8784Z" fill="#FFC107"/>
<path d="M3.41406 7.95771L6.97335 10.568C7.93644 8.18358 10.2689 6.50008 12.9983 6.50008C14.6553 6.50008 16.1627 7.12516 17.3105 8.14621L20.3747 5.082C18.4399 3.27879 15.8518 2.16675 12.9983 2.16675C8.83723 2.16675 5.22865 4.51596 3.41406 7.95771Z" fill="#FF3D00"/>
<path d="M12.9998 23.8332C15.7981 23.8332 18.3407 22.7623 20.2631 21.0209L16.9101 18.1836C15.7859 19.0386 14.4122 19.501 12.9998 19.4999C10.1821 19.4999 7.78955 17.7032 6.88822 15.1958L3.35547 17.9177C5.14839 21.426 8.78947 23.8332 12.9998 23.8332Z" fill="#4CAF50"/>
<path d="M23.6226 10.8782L22.75 10.8782L22.75 10.8333L13 10.8333L13 15.1666L19.1225 15.1666C18.6952 16.3671 17.9256 17.4162 16.9087 18.1842L16.9103 18.1831L20.2632 21.0204C20.026 21.236 23.8333 18.4166 23.8333 12.9999C23.8333 12.2735 23.7586 11.5645 23.6226 10.8782Z" fill="#1976D2"/>
</svg>
