<svg width="510" height="405" viewBox="0 0 510 405" fill="none" xmlns="http://www.w3.org/2000/svg">
<g id="No Upcoming Trips">
<g id="Group 3">
<mask id="mask0_157_37161" style="mask-type:luminance" maskUnits="userSpaceOnUse" x="48" y="0" width="425" height="249">
<path id="Clip 2" fill-rule="evenodd" clip-rule="evenodd" d="M153.507 44.1103H99.2079C92.1523 44.1103 86.3815 50.0638 86.3815 57.3422C86.3815 64.6206 92.1523 70.5741 99.2079 70.5741H126.841H134.94C141.995 70.5741 147.766 76.5295 147.766 83.808C147.766 87.4453 146.32 90.7605 143.995 93.15C141.678 95.551 138.464 97.0418 134.94 97.0418H117.663H108.124H61.5838C54.5282 97.0418 48.7573 102.997 48.7573 110.274C48.7573 117.55 54.5282 123.506 61.5838 123.506H94.9018C84.8436 147.892 79.2734 174.725 79.2734 202.905C79.2734 213.128 80.0086 223.176 81.4189 232.994C82.0078 237.097 82.7186 241.164 83.5495 245.187C107.749 241.368 133.419 238.296 160.217 236.055L162.234 237.953L164.132 235.739C196.328 233.155 230.121 231.778 264.975 231.778C339.026 231.778 408.322 237.988 467.57 248.786C469.855 238.572 471.394 228.063 472.122 217.319C472.454 212.555 472.617 207.748 472.617 202.905C472.617 90.8395 384.569 0 275.946 0C229.652 0 187.103 16.5028 153.507 44.1103Z" fill="white"/>
</mask>
<g mask="url(#mask0_157_37161)">
<path id="Fill 1" fill-rule="evenodd" clip-rule="evenodd" d="M39.3779 258.43H481.993V-9.6416H39.3779V258.43Z" fill="#F2F2F2"/>
</g>
</g>
<g id="Group 6">
<mask id="mask1_157_37161" style="mask-type:luminance" maskUnits="userSpaceOnUse" x="1" y="96" width="35" height="28">
<path id="Clip 5" fill-rule="evenodd" clip-rule="evenodd" d="M14.8665 96.4277C7.72089 96.4277 1.875 102.505 1.875 109.928C1.875 117.351 7.72089 123.428 14.8665 123.428H22.6404C29.7879 123.428 35.6337 117.351 35.6337 109.928C35.6337 102.505 29.7879 96.4277 22.6404 96.4277H14.8665Z" fill="white"/>
</mask>
<g mask="url(#mask1_157_37161)">
<path id="Fill 4" fill-rule="evenodd" clip-rule="evenodd" d="M-7.50439 133.072H45.0092V86.7861H-7.50439V133.072Z" fill="#F1F2F7"/>
</g>
</g>
<g id="Group 9">
<mask id="mask2_157_37161" style="mask-type:luminance" maskUnits="userSpaceOnUse" x="83" y="232" width="426" height="173">
<path id="Clip 8" fill-rule="evenodd" clip-rule="evenodd" d="M163.852 236.003L161.952 238.203L159.936 236.317C133.145 238.544 107.482 241.594 83.2866 245.391C102.137 336.578 181.095 404.997 275.636 404.997C319.904 404.997 360.75 389.989 393.621 364.673H428.612C435.664 364.673 441.435 358.754 441.435 351.524C441.435 347.914 439.989 344.616 437.665 342.242C435.347 339.856 432.133 338.375 428.612 338.375H413.395C406.341 338.375 400.57 332.458 400.57 325.226C400.57 321.614 402.016 318.318 404.34 315.942C406.658 313.556 409.873 312.077 413.395 312.077H495.303C502.356 312.077 508.126 306.16 508.126 298.926C508.126 295.314 506.679 292.018 504.356 289.644C502.03 287.258 498.831 285.777 495.303 285.777H455.139C460.269 274.057 464.339 261.749 467.217 248.968C407.982 238.24 338.703 232.066 264.669 232.066C229.824 232.066 196.037 233.434 163.852 236.003Z" fill="white"/>
</mask>
<g mask="url(#mask2_157_37161)">
<path id="Fill 7" fill-rule="evenodd" clip-rule="evenodd" d="M73.9072 414.642H517.499V222.425H73.9072V414.642Z" fill="#DBDBDB"/>
</g>
</g>
<g id="Group 12">
<mask id="mask3_157_37161" style="mask-type:luminance" maskUnits="userSpaceOnUse" x="163" y="208" width="308" height="41">
<path id="Clip 11" fill-rule="evenodd" clip-rule="evenodd" d="M432.818 233.947L413.017 215.284L391.828 231.457L382.945 218.873L347.881 231.457L267.106 218.873L220.153 232.203C234.51 231.71 249.098 231.457 263.878 231.457C337.831 231.457 407.036 237.785 466.208 248.789C468.485 238.379 470.024 227.671 470.75 216.723L464.047 208.289L432.818 233.947ZM163.172 235.492C181.672 233.977 200.698 232.87 220.155 232.202L185.47 208.928L163.172 235.492Z" fill="white"/>
</mask>
<g mask="url(#mask3_157_37161)">
<path id="Fill 10" opacity="0.15" fill-rule="evenodd" clip-rule="evenodd" d="M153.8 258.43H480.134V198.645H153.8V258.43Z" fill="black"/>
</g>
</g>
<g id="Group 15">
<mask id="mask4_157_37161" style="mask-type:luminance" maskUnits="userSpaceOnUse" x="159" y="235" width="5" height="3">
<path id="Clip 14" fill-rule="evenodd" clip-rule="evenodd" d="M159.413 235.567L161.345 237.22L163.164 235.289C161.911 235.374 160.657 235.466 159.413 235.567Z" fill="white"/>
</mask>
<g mask="url(#mask4_157_37161)">
<path id="Fill 13" fill-rule="evenodd" clip-rule="evenodd" d="M150.034 246.859H172.54V225.645H150.034V246.859Z" fill="#F1F2F7"/>
</g>
</g>
<g id="Group 18" opacity="0.15">
<mask id="mask5_157_37161" style="mask-type:luminance" maskUnits="userSpaceOnUse" x="80" y="200" width="80" height="45">
<path id="Clip 17" fill-rule="evenodd" clip-rule="evenodd" d="M80.647 232.715C81.2359 236.825 81.9467 240.898 82.7738 244.926C106.966 241.102 132.628 238.026 159.417 235.781L122.112 200.569L80.647 232.715Z" fill="white"/>
</mask>
<g mask="url(#mask5_157_37161)">
<path id="Fill 16" fill-rule="evenodd" clip-rule="evenodd" d="M71.2676 254.571H168.793V190.928H71.2676V254.571Z" fill="black"/>
</g>
</g>
<g id="Group 21">
<mask id="mask6_157_37161" style="mask-type:luminance" maskUnits="userSpaceOnUse" x="205" y="279" width="148" height="14">
<path id="Clip 20" fill-rule="evenodd" clip-rule="evenodd" d="M205.77 285.85C205.77 289.576 238.517 292.6 278.915 292.6C319.311 292.6 352.059 289.576 352.059 285.85C352.059 282.124 319.311 279.1 278.915 279.1C238.517 279.1 205.77 282.124 205.77 285.85Z" fill="white"/>
</mask>
<g mask="url(#mask6_157_37161)">
<path id="Fill 19" fill-rule="evenodd" clip-rule="evenodd" d="M196.397 302.241H361.44V269.455H196.397V302.241Z" fill="#6A6A6A" fill-opacity="0.15"/>
</g>
</g>
<g id="Frame" clip-path="url(#clip0_157_37161)">
<g id="Group">
<path id="Vector" d="M184.566 180.697H191.344V269.103H184.566V180.697Z" fill="#707070"/>
<path id="Vector_2" d="M184.566 180.697H191.344V269.103H184.566V180.697Z" fill="#707070"/>
<path id="Vector_3" d="M230.925 252.542V265.015C230.925 267.273 232.794 269.103 235.099 269.103H247.753C250.058 269.103 251.927 267.273 251.927 265.015V252.542H230.925ZM323.924 252.542V265.015C323.924 267.273 322.055 269.103 319.75 269.103H307.096C304.791 269.103 302.922 267.273 302.922 265.015V252.542H323.924Z" fill="#3F3F3F"/>
<path id="Vector_4" d="M325.984 145.788C318.117 142.731 298.209 135.896 277.428 135.896C256.648 135.896 236.739 142.731 228.873 145.788C226.735 146.618 225.34 148.644 225.34 150.897V248.04C225.34 251.077 227.854 253.54 230.955 253.54H323.901C327.002 253.54 329.517 251.077 329.517 248.04V150.897C329.517 148.644 328.121 146.618 325.984 145.788Z" fill="#C16C49"/>
<path id="Vector_5" d="M184.566 228.481L191.344 235.259V180.694H184.566V228.481Z" fill="#3F3F3F"/>
<path id="Vector_6" d="M323.901 253.541C327.002 253.541 329.516 251.079 329.516 248.041V247.747L304.481 222.712C303.959 222.188 303.331 221.78 302.64 221.516C301.949 221.251 301.21 221.135 300.471 221.176C294.644 221.5 282.926 221.349 276.141 217.695L292.237 210.468L235.541 153.772C234.011 152.241 231.353 152.62 230.457 154.59C230.45 154.606 230.444 154.621 230.437 154.636C229.393 156.985 225.34 188.947 225.34 188.947V248.041C225.34 251.079 227.854 253.541 230.955 253.541H323.901Z" fill="#C16C49"/>
<path id="Vector_7" d="M217.433 197.4L225.337 199.137V171.41H213.072V192.063C213.072 194.622 214.884 196.84 217.433 197.4Z" fill="#DCB195"/>
<path id="Vector_8" d="M243.147 234.759C246.729 234.759 249.633 231.914 249.633 228.404C249.633 224.895 246.729 222.05 243.147 222.05C239.564 222.05 236.66 224.895 236.66 228.404C236.66 231.914 239.564 234.759 243.147 234.759Z" fill="white"/>
<path id="Vector_9" d="M337.418 197.4L329.514 199.137V171.41H341.779V192.063C341.779 194.622 339.967 196.84 337.418 197.4Z" fill="#DCB195"/>
<path id="Vector_10" d="M272.496 144.869C267.296 145.373 259.097 146.366 253.472 148.005C252.869 148.181 252.34 148.548 251.964 149.051C251.588 149.554 251.385 150.165 251.386 150.793C251.386 151.174 251.461 151.552 251.607 151.904C251.753 152.256 251.967 152.576 252.237 152.846C252.506 153.115 252.826 153.329 253.178 153.475C253.531 153.621 253.908 153.696 254.289 153.696H300.572C300.953 153.696 301.33 153.621 301.683 153.475C302.035 153.329 302.355 153.115 302.624 152.846C302.894 152.576 303.108 152.256 303.254 151.904C303.399 151.552 303.474 151.174 303.474 150.793C303.476 150.165 303.273 149.554 302.897 149.051C302.521 148.548 301.991 148.181 301.389 148.005C295.764 146.366 287.565 145.373 282.365 144.869C279.083 144.55 275.778 144.55 272.496 144.869Z" fill="#C16C49"/>
<path id="Vector_11" d="M277.424 164.285H237.246V207.326C237.246 209.504 238.657 211.435 240.763 212.135C247.185 214.272 261.616 218.391 277.424 218.391C293.232 218.391 307.662 214.272 314.085 212.135C316.19 211.435 317.601 209.504 317.601 207.326V164.285H277.424Z" fill="#D5D8DB"/>
<path id="Vector_12" d="M311.704 234.759C315.287 234.759 318.191 231.914 318.191 228.404C318.191 224.895 315.287 222.05 311.704 222.05C308.122 222.05 305.218 224.895 305.218 228.404C305.218 231.914 308.122 234.759 311.704 234.759Z" fill="white"/>
<path id="Vector_13" d="M295.442 236.09C295.069 234.305 293.466 233.024 291.606 233.024H263.241C261.381 233.024 259.778 234.306 259.404 236.09C258.924 238.381 260.672 240.533 263.014 240.533H291.832C294.174 240.534 295.922 238.382 295.442 236.09Z" fill="#EAD1BE"/>
<path id="Vector_14" d="M188.066 184.143C199.032 184.143 207.922 175.253 207.922 164.287C207.922 153.321 199.032 144.431 188.066 144.431C177.099 144.431 168.209 153.321 168.209 164.287C168.209 175.253 177.099 184.143 188.066 184.143Z" fill="#DCB195"/>
<path id="Vector_15" d="M173.203 151.128C170.098 154.632 168.209 159.238 168.209 164.288C168.209 175.254 177.099 184.144 188.066 184.144C193.115 184.144 197.722 182.255 201.226 179.151L173.203 151.128Z" fill="#C16C49"/>
<path id="Vector_16" d="M188.067 176.942C195.055 176.942 200.72 171.276 200.72 164.288C200.72 157.3 195.055 151.635 188.067 151.635C181.079 151.635 175.414 157.3 175.414 164.288C175.414 171.276 181.079 176.942 188.067 176.942Z" fill="white"/>
<path id="Vector_17" d="M194.81 222.052H181.329C180.827 222.052 180.329 221.953 179.865 221.761C179.401 221.569 178.979 221.287 178.624 220.932C178.269 220.577 177.987 220.155 177.795 219.691C177.603 219.227 177.504 218.729 177.504 218.227V192.542H198.635V218.227C198.635 218.729 198.536 219.227 198.344 219.691C198.152 220.155 197.87 220.577 197.515 220.932C197.16 221.287 196.738 221.569 196.274 221.761C195.81 221.954 195.312 222.052 194.81 222.052Z" fill="#A2A2A2"/>
<path id="Vector_18" d="M188.068 176.94C191.008 176.944 193.858 175.92 196.123 174.044L185.734 163.655C183.279 161.201 179.151 161.997 177.73 165.164C177.119 166.525 176.712 167.968 176.522 169.448C178.499 173.86 182.92 176.94 188.068 176.94Z" fill="#EDEDED"/>
<path id="Vector_19" d="M177.504 215.473V218.226C177.504 218.728 177.603 219.225 177.795 219.69C177.987 220.154 178.269 220.575 178.624 220.931C178.979 221.286 179.401 221.568 179.865 221.76C180.329 221.952 180.827 222.051 181.329 222.051H194.809C196.479 222.051 197.884 220.974 198.406 219.483L184.982 206.059C183.165 204.242 180.061 205.107 179.445 207.601L177.504 215.473Z" fill="#6F6F6F"/>
<path id="Vector_20" d="M246.035 164.285H237.246V183.249L272.238 218.241C273.945 218.334 275.674 218.391 277.424 218.391C284.834 218.391 291.928 217.483 298.05 216.3L246.035 164.285ZM290.611 164.285H273.009L317.402 208.678C317.525 208.243 317.602 207.792 317.602 207.325V191.276L290.611 164.285Z" fill="white"/>
<path id="Vector_21" d="M333.41 171.41H329.514V199.137L333.41 198.281V171.41Z" fill="#C16C49"/>
</g>
</g>
</g>
<defs>
<clipPath id="clip0_157_37161">
<rect width="57.8571" height="57.8571" fill="white" transform="matrix(3 0 0 3 168.214 115.714)"/>
</clipPath>
</defs>
</svg>
