<svg width="14" height="19" viewBox="0 0 14 19" fill="none" xmlns="http://www.w3.org/2000/svg">
<path d="M7 0C3.14067 0 0 3.16244 0 7.05056C0 12.5751 6.342 18.2793 6.61189 18.5189C6.71857 18.6144 6.85668 18.6672 6.99985 18.6674C7.14303 18.6675 7.28124 18.6149 7.38811 18.5197C7.658 18.2793 14 12.5751 14 7.05056C14 3.16244 10.8593 0 7 0ZM7 10.8889C4.85567 10.8889 3.11111 9.14433 3.11111 7C3.11111 4.85567 4.85567 3.11111 7 3.11111C9.14433 3.11111 10.8889 4.85567 10.8889 7C10.8889 9.14433 9.14433 10.8889 7 10.8889Z" fill="#6A6A6A"/>
</svg>
