<svg width="26" height="26" viewBox="0 0 26 26" fill="none" xmlns="http://www.w3.org/2000/svg">
<path d="M6.42191 15.4656L5.59916 18.537L2.59203 18.6006C1.69335 16.9338 1.18359 15.0266 1.18359 13C1.18359 11.0403 1.6602 9.1922 2.50501 7.56494H2.50566L5.18285 8.05576L6.35562 10.7169C6.11016 11.4325 5.97637 12.2007 5.97637 13C5.97647 13.8675 6.13361 14.6987 6.42191 15.4656Z" fill="#FBBB00"/>
<path d="M24.6136 10.792C24.7493 11.5069 24.8201 12.2452 24.8201 12.9998C24.8201 13.8459 24.7311 14.6712 24.5617 15.4673C23.9864 18.1764 22.4831 20.542 20.4006 22.216L20.4 22.2154L17.0279 22.0433L16.5507 19.0641C17.9325 18.2537 19.0124 16.9855 19.5812 15.4673H13.2617V10.792H19.6734H24.6136Z" fill="#518EF8"/>
<path d="M20.4015 22.2153L20.4022 22.216C18.3769 23.8439 15.8041 24.8179 13.0035 24.8179C8.50284 24.8179 4.58987 22.3023 2.59375 18.6004L6.42362 15.4653C7.42166 18.1289 9.99115 20.0251 13.0035 20.0251C14.2983 20.0251 15.5113 19.6751 16.5522 19.064L20.4015 22.2153Z" fill="#28B446"/>
<path d="M20.5442 3.90241L16.7156 7.03681C15.6383 6.36345 14.3649 5.97447 13.0007 5.97447C9.92014 5.97447 7.3026 7.95757 6.35456 10.7167L2.50455 7.56475H2.50391C4.4708 3.77255 8.43313 1.18164 13.0007 1.18164C15.8682 1.18164 18.4974 2.20308 20.5442 3.90241Z" fill="#F14336"/>
</svg>
